<svg width="26" height="26" viewBox="0 0 26 26" fill="none" xmlns="http://www.w3.org/2000/svg">
<path d="M17.9874 2.05691H7.19916C5.58302 2.05691 4.26074 3.3687 4.26074 4.99533V20.0967C4.26074 21.7234 5.58302 23.0457 7.19916 23.0457H17.9874C19.614 23.0457 20.9258 21.7234 20.9258 20.0967V4.99533C20.9258 3.3687 19.614 2.05691 17.9874 2.05691ZM8.28011 17.2003H16.9065C17.3472 17.2003 17.6935 17.5571 17.6935 17.9874C17.6935 18.4177 17.3472 18.7745 16.9065 18.7745H8.28011C7.84984 18.7745 7.49303 18.4177 7.49303 17.9874C7.49303 17.5571 7.84984 17.2003 8.28011 17.2003ZM7.49303 12.5933C7.49303 12.163 7.84984 11.8062 8.28011 11.8062H16.9065C17.3472 11.8062 17.6935 12.163 17.6935 12.5933C17.6935 13.034 17.3472 13.3803 16.9065 13.3803H8.28011C7.84984 13.3803 7.49303 13.034 7.49303 12.5933ZM16.9065 7.98623H8.28011C7.84984 7.98623 7.49303 7.63992 7.49303 7.19915C7.49303 6.76888 7.84984 6.41207 8.28011 6.41207H16.9065C17.3472 6.41207 17.6935 6.76888 17.6935 7.19915C17.6935 7.63992 17.3472 7.98623 16.9065 7.98623Z" fill="black"/>
</svg>
