<svg width="26" height="26" viewBox="0 0 26 26" fill="none" xmlns="http://www.w3.org/2000/svg">
<path d="M19.0681 2.09887H6.11797C3.90365 2.09887 2.09863 3.9039 2.09863 6.11821V19.0683C2.09863 21.2826 3.90365 23.0876 6.11797 23.0876H19.0681C20.978 23.0876 22.5732 21.7444 22.9824 19.9603C23.0454 19.8449 23.0874 19.7189 23.0874 19.5825V6.11821C23.0874 3.9039 21.2824 2.09887 19.0681 2.09887ZM19.8551 13.6742C19.8551 14.1044 19.4983 14.4612 19.0681 14.4612C18.6273 14.4612 18.281 14.1044 18.281 13.6742V11.5123C18.281 11.0821 18.6273 10.7252 19.0681 10.7252C19.4983 10.7252 19.8551 11.0821 19.8551 11.5123V13.6742ZM5.33089 13.6742V11.5123C5.33089 11.0821 5.6877 10.7252 6.11797 10.7252C6.55873 10.7252 6.90505 11.0821 6.90505 11.5123V13.6742C6.90505 14.1044 6.55873 14.4612 6.11797 14.4612C5.6877 14.4612 5.33089 14.1044 5.33089 13.6742ZM16.6123 9.36098V15.8255C16.6123 16.2663 16.266 16.6126 15.8253 16.6126C15.395 16.6126 15.0382 16.2663 15.0382 15.8255V9.36098C15.0382 8.92021 15.395 8.5739 15.8253 8.5739C16.266 8.5739 16.6123 8.92021 16.6123 9.36098ZM13.3801 7.19914V17.9874C13.3801 18.4176 13.0233 18.7744 12.593 18.7744C12.1627 18.7744 11.8059 18.4176 11.8059 17.9874V7.19914C11.8059 6.76887 12.1627 6.41206 12.593 6.41206C13.0233 6.41206 13.3801 6.76887 13.3801 7.19914ZM10.1478 9.36098V15.8255C10.1478 16.2663 9.79103 16.6126 9.36076 16.6126C8.92 16.6126 8.57368 16.2663 8.57368 15.8255V9.36098C8.57368 8.92021 8.92 8.5739 9.36076 8.5739C9.79103 8.5739 10.1478 8.92021 10.1478 9.36098Z" fill="black"/>
</svg>
