<svg width="26" height="26" viewBox="0 0 26 26" fill="none" xmlns="http://www.w3.org/2000/svg">
<path d="M11.8062 9.6968V11.7117C11.0506 11.5228 10.5469 11.0926 10.5469 10.7043C10.5469 10.3055 11.0506 9.8752 11.8062 9.6968Z" fill="black"/>
<path d="M14.6392 14.4822C14.6392 14.8705 14.1355 15.3008 13.3799 15.4897V13.4748C14.1355 13.6532 14.6392 14.0834 14.6392 14.4822Z" fill="black"/>
<path d="M19.824 5.35214C17.893 3.42117 15.3219 2.36124 12.5934 2.36124C9.86481 2.36124 7.29369 3.42117 5.36272 5.35214C3.42126 7.2831 2.36133 9.85423 2.36133 12.5933C2.36133 13.9365 2.62369 15.2588 3.13791 16.5077C3.65214 17.7565 4.40773 18.8689 5.36272 19.8239C6.30722 20.7789 7.43012 21.524 8.67895 22.0382C9.92778 22.5629 11.2396 22.8253 12.5934 22.8253C13.9471 22.8253 15.2589 22.5629 16.5078 22.0382C17.7566 21.524 18.8795 20.7789 19.824 19.8239C20.779 18.8689 21.5346 17.7565 22.0488 16.5077C22.563 15.2588 22.8254 13.9365 22.8254 12.5933C22.8254 9.85423 21.7654 7.2831 19.824 5.35214ZM13.3804 17.0954V17.3157C13.3804 17.746 13.0236 18.1028 12.5934 18.1028C12.1631 18.1028 11.8063 17.746 11.8063 17.3157V17.0849C10.8828 16.9379 10.0642 16.5392 9.53949 15.941C9.30861 15.6681 9.28762 15.2693 9.49751 14.9755C9.7074 14.6711 10.0852 14.5662 10.421 14.6921L11.8063 15.2169V13.3069C10.1691 13.055 8.97279 11.9951 8.97279 10.7043C8.97279 9.40297 10.1691 8.35353 11.8063 8.09117V7.87079C11.8063 7.43003 12.1631 7.08371 12.5934 7.08371C13.0236 7.08371 13.3804 7.43003 13.3804 7.87079V8.09117C14.3039 8.24859 15.1225 8.64738 15.6472 9.23506C15.8781 9.50792 15.8991 9.9067 15.6892 10.211C15.5423 10.4209 15.3009 10.5469 15.049 10.5469C14.9546 10.5469 14.8601 10.5259 14.7657 10.4944L13.3804 9.95917V11.8691C15.0176 12.121 16.2139 13.181 16.2139 14.4823C16.2139 15.7836 15.0176 16.833 13.3804 17.0954Z" fill="black"/>
</svg>
